<svg xmlns="http://www.w3.org/2000/svg" version="1.0" width="96.000000pt" height="96.000000pt" viewBox="0 0 96.000000 96.000000" preserveAspectRatio="xMidYMid meet">
<metadata fill="#166466">
</metadata>
<g transform="translate(0.000000,96.000000) scale(0.100000,-0.100000)" fill="#166466" stroke="none">
<path d="M328 752 c-116 -117 -215 -227 -227 -250 -25 -50 -29 -155 -6 -209 22 -52 207 -247 259 -272 57 -28 162 -29 214 -2 20 11 68 51 107 90 60 61 69 75 69 107 0 44 -31 74 -77 74 -25 0 -45 -13 -99 -67 -58 -57 -73 -67 -103 -67 -31 0 -46 10 -121 84 -89 88 -114 124 -114 161 0 14 36 58 103 125 128 130 130 130 232 34 57 -54 81 -70 103 -70 39 0 70 27 78 66 5 27 -2 39 -57 102 -34 40 -65 72 -68 72 -3 1 -17 10 -30 20 l-23 20 41 45 c42 46 49 71 30 108 -16 30 -28 37 -70 37 -33 0 -49 -14 -241 -208z m270 141 c2 -7 -22 -39 -52 -71 -31 -32 -56 -64 -56 -70 0 -6 19 -20 43 -30 23 -11 71 -49 106 -86 59 -62 63 -69 48 -83 -15 -15 -22 -11 -91 51 -124 111 -167 105 -303 -42 -49 -53 -95 -107 -101 -119 -16 -30 -15 -78 2 -111 21 -39 206 -219 234 -227 49 -14 92 4 163 71 37 35 72 64 77 64 5 0 15 -7 22 -15 10 -12 2 -26 -50 -79 -34 -36 -78 -72 -97 -81 -43 -21 -122 -21 -160 -1 -40 20 -230 216 -243 250 -15 40 -12 126 5 160 9 16 104 120 213 232 191 196 227 225 240 187z" fill="#166466"/>
<path d="M410 463 c-56 -21 -70 -96 -24 -132 25 -20 39 -21 231 -21 246 0 263 5 263 82 0 28 -6 42 -26 57 -25 20 -39 21 -228 20 -110 0 -208 -3 -216 -6z m408 -52 c8 -5 12 -17 10 -27 -3 -18 -16 -19 -208 -19 -192 0 -205 1 -208 19 -2 10 2 22 10 27 17 11 379 11 396 0z" fill="#166466"/>
</g>
</svg>